<svg version="1.1" id="Layer_1" xmlns="http://www.w3.org/2000/svg" xmlns:xlink="http://www.w3.org/1999/xlink" x="0px" y="0px"
	 width="100%" viewBox="0 0 1024 1024" enable-background="new 0 0 1024 1024" xml:space="preserve">
<path fill="#000000" opacity="1.000000" stroke="none" 
	d="
M587.092468,447.736572 
	C584.941345,440.378418 586.626282,433.168213 585.570679,424.774841 
	C584.352478,430.112122 585.597961,434.334412 583.415222,438.360077 
	C582.882263,434.417023 582.537659,430.436584 581.763977,426.541321 
	C580.968323,422.535431 581.192078,417.179138 574.153992,419.687714 
	C572.289856,420.352142 571.015808,418.743958 571.105347,416.743225 
	C571.224121,414.090942 571.180054,411.345215 571.863159,408.817261 
	C582.053772,371.105682 604.151123,344.392792 643.116272,334.739044 
	C662.895996,329.838562 682.494690,332.427795 700.919128,341.741028 
	C702.510559,342.545441 704.119507,343.315094 706.914062,344.686920 
	C704.203003,339.150879 702.040039,334.740692 699.882874,330.327667 
	C688.365967,306.767120 675.310120,284.000977 657.758118,264.511108 
	C641.555054,246.519089 625.084351,228.606537 603.599304,216.145538 
	C591.431091,209.088211 572.993042,208.639038 562.096069,218.492523 
	C561.389832,219.131104 560.635071,219.929657 559.482971,219.356369 
	C559.855591,213.318100 567.484070,206.101654 575.379456,203.674835 
	C595.365479,197.531708 613.099365,203.117386 629.924988,213.752716 
	C648.690552,225.614288 664.108643,241.227844 679.065186,257.407593 
	C704.076172,284.464081 720.885925,316.456573 735.556519,349.830780 
	C743.278564,367.397675 750.487488,385.119568 753.591125,404.149414 
	C757.564758,428.513733 759.350403,452.999634 757.568787,477.741272 
	C756.648071,490.527832 756.222412,503.369812 753.414734,515.883057 
	C746.816223,545.291321 733.055115,571.269836 714.844971,595.114868 
	C696.682434,618.897644 672.016602,632.847412 644.728394,643.477722 
	C631.511658,648.626465 617.943298,651.280090 604.060852,652.837341 
	C595.572388,653.789490 587.279114,651.054260 578.856750,650.364868 
	C576.729492,650.190796 574.649414,649.455322 572.544312,648.992737 
	C569.897888,648.411316 567.509399,647.470703 566.242554,645.058411 
	C567.057556,642.669800 568.875488,642.623962 570.471863,642.558289 
	C586.044312,641.917603 600.159058,635.556702 614.861633,631.462708 
	C624.377991,628.812866 633.561890,625.351807 642.372070,621.042542 
	C656.521118,614.121826 668.970276,604.665100 680.503174,593.973450 
	C694.313843,581.170227 705.911316,566.554443 714.149353,549.676025 
	C720.178711,537.322998 725.597717,524.522705 726.958008,509.371887 
	C711.806396,525.677063 693.561707,534.681030 672.623169,537.567383 
	C651.480652,540.481873 631.884827,536.059814 614.755493,522.193115 
	C621.509827,522.575867 627.138733,518.899292 633.397949,518.161865 
	C635.996704,517.855713 637.713684,519.883240 639.159119,521.666626 
	C644.996948,528.869385 652.419800,531.798950 661.645996,531.030029 
	C665.416504,530.715759 669.283997,531.328247 673.088684,531.706665 
	C682.199707,532.612915 690.165039,530.404053 696.716370,523.695007 
	C700.802429,519.510681 706.911804,517.488342 709.939270,510.940277 
	C683.748352,522.959045 657.809387,523.687561 632.652771,510.568451 
	C607.455994,497.428406 592.859863,475.867188 587.092468,447.736572 
M673.661072,400.590546 
	C672.860046,406.044647 675.190369,409.194092 679.133484,407.457153 
	C682.080322,406.159119 684.695068,406.410553 687.669373,406.429382 
	C692.678284,406.461121 697.035645,404.414215 699.464905,399.543335 
	C701.166626,396.131378 700.395264,392.969482 698.050110,390.318726 
	C694.247070,386.020050 689.230774,385.154633 683.920105,386.524048 
	C678.951599,387.805298 675.969299,391.186127 675.458191,396.400208 
	C675.321899,397.791046 675.042969,398.991394 673.661072,400.590546 
M622.119629,355.574768 
	C625.977539,354.070831 628.217834,350.656311 631.617249,348.336761 
	C629.298218,346.506989 627.639832,347.281097 626.202209,348.467529 
	C623.008118,351.103485 619.643677,353.157013 615.677002,354.702698 
	C612.149597,356.077240 608.949280,358.873688 607.025330,362.553772 
	C606.365173,363.816528 606.033752,365.108948 607.321533,366.134064 
	C608.516357,367.085175 609.842346,366.891388 610.965576,365.960632 
	C614.700989,362.865265 619.525696,360.925232 622.119629,355.574768 
M583.007141,405.495850 
	C581.354004,403.601776 579.998535,404.541260 579.136841,406.165558 
	C577.848877,408.593292 577.500671,411.083130 580.246521,413.542328 
	C582.710815,411.456543 583.595520,409.059509 583.007141,405.495850 
z"/>
<path fill="#000000" opacity="1.000000" stroke="none" 
	d="
M478.486084,250.301575 
	C479.917877,251.666794 481.148346,252.941559 478.476257,253.615173 
	C476.882843,254.016861 475.174377,254.041443 473.513733,254.084381 
	C462.024841,254.381485 453.049713,259.129120 445.580597,268.014069 
	C438.372559,276.588440 444.443939,290.891724 450.043915,296.592682 
	C451.404572,297.977905 452.874237,297.034882 454.252869,296.645630 
	C457.414948,295.752838 460.548279,294.758240 464.047729,293.697510 
	C464.331604,296.303986 462.642914,296.953186 461.436462,297.869476 
	C455.334564,302.503632 449.358978,307.323364 443.057526,311.669769 
	C437.439606,315.544617 433.569153,320.712128 429.602020,326.138702 
	C425.341217,331.967072 428.137115,345.288086 433.488251,350.105225 
	C435.163544,351.613373 436.451447,351.021057 437.982086,350.323029 
	C441.921997,348.526428 445.838501,346.675537 449.814972,344.963837 
	C451.250977,344.345673 452.602386,342.982208 454.821411,344.103119 
	C451.768433,347.874146 447.693848,350.165466 443.876221,352.542053 
	C432.273895,359.764893 427.198578,370.496674 427.494232,383.604950 
	C427.711700,393.248352 431.596710,401.341492 440.262573,406.993164 
	C450.115326,413.418884 460.514893,414.622192 471.708038,412.515411 
	C481.911102,410.594971 492.029388,409.780579 502.367157,412.473877 
	C512.053040,414.997375 521.938293,408.433228 524.582520,398.806366 
	C527.393066,388.573853 526.846619,379.133728 517.401428,372.518311 
	C511.414459,368.325012 504.099548,367.500946 496.984833,367.054016 
	C486.260956,366.380402 475.746063,367.906067 465.446869,371.039703 
	C463.812317,371.537018 462.123993,372.708374 460.215271,371.865509 
	C460.170441,371.497650 460.010498,370.987793 460.114655,370.926483 
	C473.834198,362.849060 488.242523,357.662872 504.590179,359.310669 
	C508.929138,359.748016 513.364502,361.320496 517.826843,359.654388 
	C525.913818,356.634888 527.687683,349.084839 527.510437,341.774628 
	C527.430847,338.494049 526.732239,335.116486 525.686584,331.993195 
	C522.975464,323.895416 522.636292,315.798157 524.432068,307.485168 
	C526.303528,298.822083 529.799194,291.441406 538.607117,287.836700 
	C541.888733,286.493652 544.545044,283.588257 548.658752,283.650482 
	C549.626099,287.176941 547.226562,288.108063 544.981018,289.183899 
	C535.667114,293.646240 532.726807,300.372070 533.546692,310.574280 
	C534.298950,319.934082 539.518982,326.052307 545.702698,331.576996 
	C545.908264,333.284943 545.016968,334.191315 544.204407,334.931152 
	C533.905640,344.309204 534.989014,356.069672 537.069275,368.109283 
	C537.547485,370.877136 538.721375,372.967285 540.761414,374.928467 
	C545.662720,379.640289 546.498047,382.865692 543.267639,388.656067 
	C532.282349,408.347046 538.528687,426.938232 546.407532,445.480530 
	C547.531372,448.125427 549.786255,450.007599 551.874756,451.921783 
	C554.585022,454.405792 554.892639,456.939880 552.291992,459.686249 
	C542.895142,469.609406 539.283020,482.301697 537.788452,495.104614 
	C536.792908,503.633148 540.016968,512.473267 545.914246,519.433716 
	C547.846191,521.713989 549.004456,523.390564 547.654053,526.399414 
	C545.750732,530.640198 547.397949,536.108582 544.147644,539.726990 
	C540.800415,543.453369 539.179260,547.922913 537.039673,552.187744 
	C532.504456,561.227783 533.436279,567.261292 540.824158,574.081787 
	C543.453308,576.508972 542.564026,579.071106 541.882324,581.383057 
	C540.185974,587.136047 538.913757,592.488831 540.807617,598.745422 
	C542.242981,603.487122 541.497314,609.253174 539.346313,613.869629 
	C536.324280,620.355530 537.176758,625.716919 541.545044,630.922241 
	C542.403381,631.945068 543.683289,632.915405 542.734131,634.346924 
	C541.829590,635.711182 540.359924,635.197388 539.092773,634.747620 
	C534.057068,632.960266 529.061462,631.123596 526.407959,625.892151 
	C525.352783,623.811890 523.317261,624.204285 521.538452,624.273987 
	C513.885437,624.574097 506.237152,624.998169 498.583374,625.271606 
	C496.634613,625.341248 494.611084,625.777954 492.353149,624.743164 
	C493.805939,622.857910 495.827026,623.046326 497.619995,622.702942 
	C506.554810,620.992310 515.853027,620.786377 523.882935,615.531250 
	C528.406799,612.570618 530.860291,606.677246 528.486023,602.662598 
	C517.235474,609.207031 504.027283,609.406982 492.049927,613.771667 
	C488.143066,615.195251 484.877075,617.345276 481.945740,619.973938 
	C478.043427,623.473389 480.654022,631.799866 486.233673,633.824280 
	C490.920929,635.524963 495.689362,636.908325 500.815796,636.860046 
	C508.942108,636.783508 517.262695,639.044128 525.106506,634.274658 
	C520.506470,637.799377 516.301025,641.128418 510.501526,642.300049 
	C494.170288,645.598999 478.773376,642.933716 463.805847,636.314880 
	C461.757019,635.408875 459.617188,635.349609 457.443970,635.324402 
	C451.121796,635.251099 444.775208,635.554993 437.233398,633.593079 
	C442.024384,638.306396 446.793457,639.410400 451.845703,639.625183 
	C460.887207,640.009705 470.003174,640.823975 478.020905,645.089905 
	C490.199921,651.569946 502.368896,650.296875 514.844482,646.916016 
	C521.203491,645.192749 525.686951,640.552185 530.576477,636.659485 
	C533.637756,634.222351 536.172241,634.393799 539.186707,636.179382 
	C540.863586,637.172729 541.657837,638.486450 540.902527,640.317566 
	C540.182495,642.062988 540.312317,645.090454 537.877747,644.930969 
	C534.273865,644.694885 531.818970,646.653687 529.234985,648.270691 
	C512.577454,658.695251 494.798798,659.174377 477.080475,652.695618 
	C466.175812,648.708252 455.179596,646.044373 443.831299,644.279236 
	C442.697876,644.102966 441.482361,643.864929 440.515198,643.297241 
	C425.117096,634.260559 408.606293,627.429321 392.786957,619.219666 
	C381.586121,613.406921 372.553680,605.745483 365.152100,595.423645 
	C357.888214,585.294006 349.104706,576.286743 339.428436,568.279480 
	C327.431091,558.351562 319.521606,546.087463 317.540405,530.347473 
	C317.062347,526.549683 315.651062,523.032410 313.774078,519.614624 
	C307.721588,508.593689 306.500092,497.394897 313.064972,486.009064 
	C314.927185,482.779388 312.875916,479.431091 312.319031,476.304352 
	C311.073700,469.312164 310.765900,462.464844 312.461456,455.557922 
	C312.745575,454.400665 312.773376,453.317810 312.194977,452.178833 
	C303.291107,434.646362 306.551147,419.427826 321.846161,406.964874 
	C322.229645,406.652374 322.621033,406.349579 323.098999,405.970673 
	C322.922485,405.212952 322.952484,404.466949 322.608307,403.992126 
	C314.002777,392.121429 316.773743,380.648010 323.682770,369.252350 
	C324.823944,367.370117 326.543182,366.430695 328.441620,365.859314 
	C331.876923,364.825378 333.138855,362.638123 332.952637,359.144928 
	C332.455231,349.813110 335.892609,341.602753 340.325378,333.647095 
	C342.392273,329.937561 346.023956,328.082001 349.133392,325.673096 
	C352.106262,323.370056 353.978577,321.050385 353.855408,317.017151 
	C353.579651,307.989227 357.777496,300.257996 362.014618,292.735901 
	C364.427002,288.453308 369.323059,286.540222 373.116608,283.596893 
	C375.697449,281.594421 377.832092,279.487091 378.903259,276.331055 
	C381.722015,268.025909 387.290649,261.633087 393.627686,255.875214 
	C398.323212,251.608780 404.644226,250.490112 410.252686,248.054276 
	C415.694885,245.690659 419.821503,242.736435 423.598145,237.717133 
	C428.650818,231.001984 434.868011,224.603470 444.040833,222.636856 
	C455.558136,220.167572 465.968048,214.684265 476.279083,209.312088 
	C484.566925,204.994034 493.086548,204.079773 502.192535,203.616180 
	C515.694031,202.928833 526.172180,209.630859 536.757874,216.033432 
	C540.226685,218.131516 542.766541,221.949127 546.154358,224.669357 
	C548.637939,226.663452 547.890259,230.814102 546.065979,233.892502 
	C542.521362,239.873962 540.201660,246.227264 540.430786,253.267532 
	C540.546326,256.820160 540.900879,260.243256 545.695068,260.946228 
	C548.223938,261.317017 549.230164,267.202789 546.683105,269.338715 
	C541.957703,273.301331 539.187317,278.648407 535.411865,283.262238 
	C535.036011,283.721466 534.380005,283.951355 532.702393,285.024048 
	C533.802490,272.703430 525.457458,265.227081 519.573975,256.002289 
	C523.703369,255.515411 525.855957,258.065430 529.952271,258.234985 
	C526.709534,252.802948 528.848328,247.972366 530.427856,243.014709 
	C531.104980,240.889435 529.104309,240.188385 527.595398,239.548187 
	C524.222961,238.117294 520.819031,236.757202 517.400085,235.440613 
	C515.103760,234.556335 514.446533,233.027573 515.087891,230.701584 
	C515.734985,228.354630 516.730896,226.828156 519.603333,227.285812 
	C522.367798,227.726257 525.192078,227.792084 528.569214,228.070206 
	C526.501160,223.611084 523.816162,220.712799 520.275940,217.966156 
	C509.837036,209.867218 498.814789,211.980606 487.616943,215.091461 
	C482.651123,216.471008 477.787384,218.224045 472.894440,219.858749 
	C465.479675,222.335983 463.573822,232.869034 470.131836,238.742477 
	C473.319763,230.542877 480.904877,230.532394 487.801147,229.174301 
	C490.091492,228.723236 491.622223,227.451996 492.877563,225.516739 
	C493.913391,223.919769 494.700378,221.862595 497.053589,221.648346 
	C502.096191,227.423981 500.988190,232.105392 494.064362,234.348541 
	C490.580109,235.477341 487.025421,236.396255 483.567352,237.596619 
	C479.409668,239.039856 475.501953,240.901337 473.862030,245.648956 
	C474.475220,247.872131 476.720490,248.631592 478.486084,250.301575 
M375.312531,561.219238 
	C382.173920,564.718140 389.310760,567.380188 396.968323,568.552429 
	C403.062286,569.485352 406.329437,567.085999 407.135284,560.989136 
	C407.401978,558.971497 407.777771,556.968262 408.103668,554.958496 
	C412.657013,563.355469 414.604553,572.473511 424.397217,577.454102 
	C433.278564,581.971191 441.758850,584.909180 452.167206,583.771423 
	C450.662262,580.365723 448.365540,578.679565 446.334503,576.802490 
	C444.396667,575.011597 443.349487,573.500366 445.732941,571.036743 
	C448.066254,568.624878 449.869141,568.719360 451.914612,571.075745 
	C455.922852,575.693237 460.865601,578.772400 466.510193,581.207825 
	C472.303894,583.707520 478.287598,584.864441 484.400452,585.439331 
	C495.476593,586.481201 506.486969,585.768066 516.507263,580.502258 
	C521.744019,577.750305 527.176025,574.814270 526.172913,566.751343 
	C525.531494,561.595825 526.776794,556.160217 527.504700,550.895569 
	C527.995117,547.348450 527.664490,545.273682 523.295349,545.004944 
	C511.329468,544.268860 501.871155,538.513367 494.337952,529.423218 
	C490.628601,524.947144 486.316010,521.716309 480.443604,520.460388 
	C468.195648,517.841003 458.643341,511.258514 451.364746,500.903137 
	C447.490967,495.391815 444.380768,489.564758 441.531250,483.562195 
	C435.728699,471.338959 415.804688,461.919891 401.150116,472.969666 
	C399.560852,474.167999 398.003174,475.796295 395.428436,475.593536 
	C396.528015,469.227844 401.008881,466.314972 407.392517,463.624786 
	C395.682007,459.877686 385.932648,455.422791 375.230133,454.447479 
	C371.007416,454.062683 366.730591,452.979156 362.398865,454.539276 
	C350.925781,458.671478 338.978210,459.362762 326.937469,458.775116 
	C322.912018,458.578674 320.995728,460.670135 320.295349,464.058716 
	C318.900787,470.806000 322.473328,476.231689 325.305542,481.900726 
	C327.570587,486.434540 331.670654,486.718750 335.780365,487.296692 
	C343.090790,488.324677 350.402710,489.341705 358.328308,490.449188 
	C357.730103,485.621155 357.233307,481.527466 356.712067,477.436890 
	C356.405823,475.033386 356.725830,473.152954 359.688202,472.717499 
	C362.434113,472.313843 364.092285,472.843445 364.514160,476.031250 
	C365.800415,485.750732 370.724030,493.758057 376.608582,501.354401 
	C384.083221,511.003357 393.509460,515.912903 405.925568,514.630188 
	C409.263611,514.285339 411.036774,512.929565 411.667389,509.604584 
	C412.378967,505.852661 413.453888,502.170013 414.357300,498.453949 
	C415.145721,495.210663 417.436157,495.514099 419.859192,496.093750 
	C422.330048,496.684875 423.567261,497.795349 422.744843,500.697723 
	C421.521942,505.013458 421.160583,509.615051 419.596588,513.781128 
	C417.890778,518.325012 419.248413,521.964111 421.606476,525.469299 
	C424.206757,529.334473 426.874084,533.224854 430.014709,536.642456 
	C437.876251,545.197327 447.429810,549.561768 459.400513,548.098877 
	C466.208649,547.266907 473.114716,547.236450 480.981293,546.787781 
	C477.611511,551.481689 472.478302,552.041504 469.809326,555.864990 
	C475.356567,562.292480 483.583344,563.120300 490.749878,566.289429 
	C485.434387,566.125977 480.162994,566.891602 475.371124,564.055237 
	C468.153381,559.783020 460.574066,556.363647 451.982849,556.517944 
	C445.449371,556.635376 440.333862,553.501343 434.798615,550.662170 
	C426.151917,546.227051 421.366882,538.316101 415.778687,531.203979 
	C411.478088,525.730591 407.156921,522.372559 399.647949,522.628662 
	C395.323669,522.776184 393.358521,523.827637 391.896027,527.557251 
	C390.356354,531.483643 389.157288,535.658325 386.256256,538.949768 
	C380.227570,534.497986 379.232941,532.076904 382.072540,525.902771 
	C384.272461,521.119507 383.874084,517.929688 378.940063,515.308655 
	C374.208923,512.795471 370.400391,508.934509 366.647522,505.147278 
	C364.005920,502.481445 360.988037,500.643250 357.517395,499.250092 
	C347.817688,495.356354 337.536285,497.844025 327.968536,495.634766 
	C327.207947,497.104370 327.336548,497.911285 327.780334,498.655121 
	C332.074951,505.853943 338.204681,510.617493 346.383942,512.675110 
	C354.612671,514.745117 362.941315,516.486206 370.533813,520.550903 
	C372.794037,521.760864 374.783569,523.018677 375.323181,525.616089 
	C374.244629,526.698486 373.236877,526.389465 372.322693,526.039551 
	C365.904633,523.583435 359.300812,521.956238 352.412903,521.791870 
	C346.903046,521.660278 342.184082,519.413635 337.376251,517.017029 
	C331.501434,514.088562 326.812103,509.717041 321.124420,504.589661 
	C325.966919,520.441040 334.659943,531.620728 348.355774,539.411865 
	C349.031189,538.115234 349.417145,537.406067 349.774384,536.682800 
	C350.929565,534.343689 350.715485,530.441711 354.983276,531.461731 
	C358.928162,532.404480 357.005981,535.810242 357.273376,538.169006 
	C358.082214,545.303955 359.543304,551.935181 366.710754,555.688538 
	C369.501221,557.149719 372.025909,559.118591 375.312531,561.219238 
M316.610291,439.519226 
	C320.407379,449.146118 327.609222,452.895294 337.773315,452.760590 
	C344.304565,452.674042 350.110443,450.286316 356.234741,448.869110 
	C361.359528,447.683167 366.387085,444.957031 371.819153,446.574402 
	C388.491272,451.538361 405.855164,452.566467 422.835510,455.758667 
	C425.343109,456.230103 427.556274,457.098511 429.700317,458.515717 
	C444.949768,468.595276 456.362030,481.855865 463.888123,498.569733 
	C467.021240,505.527771 471.914856,510.653351 480.176819,511.690277 
	C483.939941,512.162598 487.568359,513.640381 491.292847,514.513000 
	C493.718414,515.081360 495.598053,516.265259 496.788452,518.447205 
	C502.445679,528.816711 511.997772,533.265564 522.910889,535.597778 
	C530.237000,537.163391 536.328979,532.070618 535.467590,524.601074 
	C534.757080,518.439819 534.843323,512.304077 534.682434,506.148834 
	C534.204956,487.884308 528.261536,473.037994 509.749054,465.804596 
	C505.275055,464.056488 501.123840,461.470001 496.863220,459.195892 
	C495.638550,458.542236 493.919617,458.325684 493.734924,456.366821 
	C495.553558,455.446564 496.951813,456.731018 498.406403,457.288696 
	C506.025635,460.209869 513.652039,463.120972 521.186340,466.251251 
	C524.994690,467.833527 526.941528,467.585388 528.300110,462.957733 
	C530.850830,454.269318 528.505432,446.658325 524.888306,439.003418 
	C516.921204,422.142487 506.366791,418.351532 487.414856,417.357452 
	C477.167328,416.819977 466.841705,418.856628 456.497467,418.247314 
	C446.807404,417.676514 437.763733,415.508423 430.694214,408.188232 
	C427.941650,405.338013 425.555328,401.479370 422.167084,400.023346 
	C412.860565,396.024109 403.154175,396.189728 393.575104,399.915344 
	C385.400940,403.094574 381.138519,410.139252 376.397461,416.764404 
	C375.124329,418.543488 374.428284,420.911926 371.569763,422.040405 
	C371.028503,415.727112 374.149292,410.193542 373.332733,403.874329 
	C368.286133,406.090820 363.822571,408.322784 359.167145,410.032135 
	C352.240540,412.575317 344.693054,414.405487 337.741852,412.386566 
	C332.541321,410.876068 329.090149,411.599915 324.965393,414.226379 
	C321.579620,416.382294 319.460785,419.068237 317.673981,422.671661 
	C315.013519,428.037018 315.783081,433.310547 316.610291,439.519226 
M415.524506,340.692932 
	C413.855011,336.875244 415.384521,333.054016 415.886078,329.367767 
	C417.205750,319.669250 420.904022,311.189117 429.967346,305.966705 
	C436.931549,301.953827 436.932800,301.835846 434.996033,294.015991 
	C431.343719,279.269409 433.783264,266.587006 445.972260,256.187378 
	C450.974762,251.919312 456.550140,248.876724 462.781586,245.533478 
	C457.807709,239.363495 459.211182,232.365402 459.046448,225.568695 
	C457.974335,225.568695 457.266968,225.387650 456.703094,225.595581 
	C446.483490,229.364120 436.480682,233.428284 430.584778,243.548996 
	C429.421692,245.545502 427.715424,247.219986 426.322479,249.089783 
	C424.962494,250.915329 423.279358,252.079575 420.962311,252.378723 
	C413.127960,253.390152 406.736633,257.245728 400.478241,261.912903 
	C396.359467,264.984436 394.385956,268.590576 393.410980,274.295746 
	C399.036530,267.556732 406.230896,265.291321 413.522522,261.761993 
	C413.009521,264.976196 411.063049,265.682037 409.541443,266.346222 
	C403.350403,269.048553 400.373535,274.273376 398.074677,280.134216 
	C396.505646,284.134491 398.358215,287.876923 402.575195,288.835571 
	C408.117432,290.095520 413.650055,291.085999 419.021240,287.922760 
	C420.350525,287.139893 421.932617,286.172455 423.704834,287.041595 
	C422.555084,293.600281 414.128510,300.850677 407.423615,300.247589 
	C399.443420,299.529755 392.881714,301.079010 387.651703,307.723389 
	C384.291809,311.991882 382.240082,317.076569 381.886139,321.828308 
	C381.304352,329.640076 380.732513,338.221680 389.069122,343.669098 
	C391.846466,345.483887 395.231537,347.177155 396.778534,351.432770 
	C388.569977,349.138885 382.177856,345.208679 378.649323,338.260956 
	C375.540680,332.140015 369.956177,330.995087 364.621552,330.552032 
	C359.365540,330.115540 353.271149,330.564301 349.662567,335.537811 
	C343.343597,344.246918 343.360535,354.423462 343.407257,365.001801 
	C347.472809,364.168274 350.649261,364.529846 353.165649,367.704926 
	C353.937622,368.678986 355.883392,368.773041 357.321075,369.161102 
	C365.834625,371.459076 374.374756,373.661865 382.858795,376.063202 
	C384.289032,376.468018 386.310547,376.245483 386.979553,378.267487 
	C386.000366,379.550201 384.855316,378.823456 383.778107,378.668030 
	C375.548218,377.480713 367.348572,375.973236 359.080292,375.193695 
	C351.054810,374.437012 346.589478,377.118195 344.361237,383.241180 
	C343.692719,385.078186 343.601471,387.144836 343.388123,389.121674 
	C343.217896,390.698547 343.000366,392.190887 341.155426,392.561218 
	C339.028931,392.988007 338.760895,391.160370 338.234833,389.850311 
	C336.320312,385.082611 334.850128,380.224152 336.549561,374.717621 
	C331.028778,376.750305 327.606720,382.572235 328.471741,388.524109 
	C328.956757,391.860931 328.589142,395.880005 331.761810,398.152557 
	C338.524811,402.996796 346.291565,404.344086 354.068878,401.827820 
	C364.036407,398.602997 374.042572,395.131897 383.399170,390.490875 
	C392.140717,386.154877 400.770172,386.891174 409.697876,387.971619 
	C412.936432,388.363556 416.372650,391.511139 419.129761,389.723328 
	C422.236633,387.708771 420.192291,383.156921 421.180756,379.848053 
	C422.565552,375.212341 421.320038,371.538452 417.504211,368.373169 
	C414.063385,365.518860 411.069336,362.125916 407.878235,358.970520 
	C408.192261,358.568268 408.506256,358.165985 408.820251,357.763733 
	C412.092957,359.213684 415.388458,360.614868 418.630219,362.131012 
	C420.732819,363.114319 422.613373,363.999756 423.924164,361.010895 
	C424.982910,358.596680 427.082458,356.079559 423.578339,354.162354 
	C418.493103,351.380096 416.826324,346.654785 415.524506,340.692932 
M381.555237,571.164612 
	C371.264893,568.458679 360.965973,564.737183 354.714172,556.029053 
	C348.572021,547.473694 339.540283,545.878113 330.973022,541.812195 
	C337.474670,560.147156 352.768005,569.064941 367.493286,578.303650 
	C376.331573,583.848877 386.828796,583.976807 396.902832,584.984314 
	C401.332947,585.427307 404.869202,586.746887 406.825562,591.115417 
	C410.096375,598.419006 415.837158,603.290161 422.774689,606.970459 
	C438.288696,615.200195 454.935760,618.264648 471.418732,612.454285 
	C486.951202,606.978943 502.555786,601.769958 518.224487,596.730164 
	C521.731079,595.602295 524.717957,593.576111 526.637146,590.779114 
	C528.660522,587.830261 531.703918,584.910095 531.238342,579.344299 
	C528.165710,581.614624 526.110046,583.205444 523.979492,584.688782 
	C521.530884,586.393616 519.459534,588.753906 516.526306,589.634705 
	C500.470917,594.455566 484.215210,594.800598 467.801208,591.727112 
	C463.770538,590.972412 459.939819,588.471130 455.662598,589.779053 
	C449.209991,591.751953 442.776428,591.835754 436.025391,591.581665 
	C425.067932,591.169373 416.987793,586.614014 410.805389,578.009094 
	C409.422394,576.084167 407.823639,575.115295 405.420166,575.051636 
	C397.576385,574.843994 389.871246,573.665405 381.555237,571.164612 
M400.050842,613.402588 
	C414.057159,622.540894 429.630341,624.961792 445.949005,624.223145 
	C443.541779,623.140564 440.986481,622.601074 438.525574,621.779053 
	C426.246002,617.677246 414.042084,612.635193 406.241150,602.085876 
	C401.062225,595.082458 394.845917,592.664612 387.199310,591.345215 
	C383.434296,590.695740 379.729462,589.702393 375.986938,588.914429 
	C374.930908,588.692017 373.738647,587.961487 372.697601,589.593811 
	C374.018158,592.659729 375.335541,595.908325 378.207581,598.108521 
	C385.073364,603.368347 391.556519,609.181396 400.050842,613.402588 
M365.756744,301.132141 
	C362.801025,307.337921 359.065491,313.248932 357.996063,320.496552 
	C362.396423,321.411072 366.366638,320.446472 370.284790,320.738556 
	C373.876617,321.006317 375.924622,319.755188 376.484436,316.062469 
	C377.565826,308.929138 380.896271,302.953094 386.077911,297.955536 
	C387.025116,297.041992 387.932007,295.986481 388.526550,294.826782 
	C390.108704,291.740448 389.039978,288.651917 387.790863,285.842194 
	C387.124481,284.343262 385.236145,284.611145 383.757751,285.251831 
	C376.290558,288.488129 368.441986,291.285889 365.756744,301.132141 
z"/>
<path fill="#000000" opacity="1.000000" stroke="none" 
	d="
M539.687378,704.613525 
	C559.813171,704.096497 579.705139,700.937317 598.974365,709.455933 
	C629.506897,722.953735 630.580750,764.747375 612.536133,782.731873 
	C603.977783,791.261658 592.884827,794.992615 581.238708,797.068176 
	C568.517456,799.335388 555.657593,798.006470 542.858948,798.272583 
	C538.922241,798.354492 538.861633,795.632507 538.858887,792.819275 
	C538.848267,781.995667 538.807007,771.171997 538.801208,760.348389 
	C538.792419,743.859985 538.793457,727.371521 538.819397,710.883118 
	C538.822510,708.901428 538.540344,706.875122 539.687378,704.613525 
M590.178528,767.713989 
	C596.995422,761.707825 600.686951,754.429626 598.638733,745.195679 
	C596.719788,736.544556 590.653015,731.674072 582.604736,728.998657 
	C578.319519,727.574158 573.867859,727.175110 569.336731,727.205322 
	C566.339722,727.225342 565.171448,728.409912 565.192139,731.361572 
	C565.284180,744.498047 565.308838,757.635315 565.283142,770.772095 
	C565.278137,773.338135 566.251709,774.283997 568.863953,774.191040 
	C576.309509,773.925964 583.388611,772.576538 590.178528,767.713989 
z"/>
<path fill="#000000" opacity="1.000000" stroke="none" 
	d="
M358.352203,787.700806 
	C360.300293,791.107361 363.115784,793.627075 364.190460,797.915039 
	C354.998810,798.636169 346.258087,798.374084 337.526794,798.114563 
	C335.479706,798.053711 334.537903,796.116882 333.448700,794.698425 
	C327.365265,786.775879 321.359375,778.793762 315.290131,770.860229 
	C313.724823,768.814148 312.026672,766.869751 309.163513,765.252441 
	C309.163513,772.993835 309.159088,780.735291 309.164612,788.476685 
	C309.172485,799.466797 309.838348,798.269531 299.636932,798.305969 
	C284.771393,798.359070 284.776978,798.326721 284.779877,783.355286 
	C284.784546,759.207520 284.772156,735.059814 284.785919,710.912048 
	C284.790070,703.665710 284.818878,703.658386 291.804779,703.664551 
	C302.962616,703.674377 314.122711,703.557556 325.277710,703.743774 
	C341.509003,704.014648 356.766571,716.446716 358.228851,730.437622 
	C359.684479,744.365051 356.046906,756.170776 342.982147,764.616760 
	C348.107971,772.309631 353.134003,779.852722 358.352203,787.700806 
M332.949921,734.623840 
	C329.929871,728.577759 325.347076,726.614624 318.813660,728.800476 
	C316.941711,729.426819 315.670959,728.551453 314.138763,727.935181 
	C311.720428,726.962524 309.317566,726.731323 309.224121,730.370972 
	C309.100403,735.188416 309.180206,740.011841 309.217102,744.832275 
	C309.228302,746.297729 309.821655,747.562988 311.457794,747.609375 
	C316.261108,747.745544 321.156555,748.517700 325.841064,747.208923 
	C331.321350,745.677917 333.876282,741.186584 332.949921,734.623840 
z"/>
<path fill="#000000" opacity="1.000000" stroke="none" 
	d="
M416.998810,727.215210 
	C410.838806,727.210754 405.173248,727.354797 399.519348,727.160278 
	C394.384888,726.983765 395.279663,730.527832 395.074615,733.611938 
	C394.848602,737.011047 395.702057,738.911621 399.711243,738.766418 
	C406.694427,738.513489 413.701996,738.907776 420.682861,738.624512 
	C425.143677,738.443481 426.595551,740.182007 426.340088,744.465210 
	C426.063049,749.110168 426.158417,753.789062 426.324951,758.444824 
	C426.442078,761.719238 424.977386,762.926025 421.879272,762.903137 
	C414.887299,762.851440 407.882477,763.159546 400.906097,762.830017 
	C395.648071,762.581665 395.063232,765.215332 394.984802,769.550598 
	C394.903168,774.063171 396.958832,774.748230 400.740936,774.680664 
	C410.394104,774.508179 420.056580,774.790833 429.706787,774.549011 
	C434.167908,774.437195 436.193939,775.940735 436.002777,780.515137 
	C435.815247,785.002686 435.928040,789.503601 435.941620,793.998535 
	C435.949860,796.730042 435.064056,798.350769 431.906311,798.339661 
	C412.594116,798.271729 393.281433,798.270874 373.969299,798.349243 
	C370.645935,798.362732 369.686462,796.853638 369.693024,793.779907 
	C369.753448,765.477417 369.776337,737.174561 369.691681,708.872192 
	C369.678864,704.580200 371.419464,702.971130 375.656128,702.992188 
	C393.969055,703.083252 412.283417,703.061218 430.595978,702.917664 
	C434.441589,702.887512 436.084564,704.269104 435.948456,708.149841 
	C435.791016,712.639160 435.811920,717.142761 435.970612,721.632568 
	C436.109955,725.573547 434.741791,727.497314 430.480835,727.237000 
	C426.169006,726.973755 421.827087,727.202820 416.998810,727.215210 
z"/>
<path fill="#000000" opacity="1.000000" stroke="none" 
	d="
M467.215759,758.638000 
	C467.988464,769.157104 475.180145,774.979126 486.545319,774.737183 
	C496.553314,774.524170 503.951202,767.621277 504.024719,758.052612 
	C504.147614,742.057739 504.183655,726.059570 503.975220,710.066467 
	C503.915039,705.449402 505.101166,703.248291 510.137146,703.628113 
	C514.941589,703.990479 519.795410,703.725647 524.627075,703.686462 
	C526.756897,703.669189 528.237732,704.311768 528.228943,706.740417 
	C528.157837,726.397156 529.550537,746.199097 527.625977,765.673096 
	C525.334167,788.863220 503.451294,801.701172 479.771790,798.814270 
	C459.600800,796.355164 447.450287,785.150757 443.436829,766.969666 
	C442.817627,764.164612 442.783234,761.353577 442.785950,758.523010 
	C442.801483,742.360596 442.801636,726.198120 442.859924,710.035828 
	C442.881622,704.012756 443.279633,703.707275 449.164337,705.417480 
	C452.891174,706.500610 456.431000,705.145630 460.055908,704.945251 
	C465.789062,704.628296 466.978027,705.501831 467.031219,711.195923 
	C467.177429,726.857300 467.161865,742.520203 467.215759,758.638000 
z"/>
<path fill="#000000" opacity="1.000000" stroke="none" 
	d="
M793.666748,747.999878 
	C793.668335,735.015137 793.785278,722.528748 793.604187,710.046631 
	C793.547485,706.137634 794.899475,704.633179 798.797058,704.833130 
	C807.426514,705.275696 816.108948,704.108459 824.708496,705.536743 
	C841.419556,708.312317 850.922546,724.469666 845.130188,740.284119 
	C844.306519,742.532898 843.353760,744.167908 846.133545,746.169189 
	C857.439941,754.309082 861.566162,766.777893 857.604309,779.505676 
	C853.669983,792.145264 842.898376,800.582214 829.377502,801.013184 
	C819.067383,801.341736 808.737488,801.004089 798.418335,801.125854 
	C794.650818,801.170227 793.593689,799.459412 793.619141,795.941589 
	C793.733521,780.128418 793.667786,764.313965 793.666748,747.999878 
M827.061951,759.332703 
	C823.729309,759.329285 820.395508,759.377808 817.064392,759.305298 
	C814.616943,759.251953 813.316895,760.178650 813.346191,762.785278 
	C813.404175,767.950195 813.375671,773.116150 813.364014,778.281677 
	C813.359558,780.264893 814.130310,781.502258 816.289734,781.424805 
	C821.113892,781.251953 825.947449,781.190674 830.757568,780.825562 
	C834.400635,780.549072 836.846008,778.292053 838.349670,775.069519 
	C841.804321,767.665466 837.142822,760.654053 827.061951,759.332703 
M814.268372,740.125366 
	C819.004333,741.476379 823.216003,740.545227 826.243347,736.605103 
	C828.322815,733.898804 828.469727,730.688782 826.201294,727.881592 
	C823.375122,724.384094 819.443604,723.748352 815.390625,724.795471 
	C811.857178,725.708435 813.598572,728.936218 813.431824,731.132629 
	C813.221619,733.900208 813.613098,736.713562 814.268372,740.125366 
z"/>
<path fill="#000000" opacity="1.000000" stroke="none" 
	d="
M211.730927,741.000000 
	C211.731339,729.843201 211.859100,719.184143 211.667679,708.530762 
	C211.595428,704.510376 212.851929,702.870361 217.066467,702.905457 
	C235.548080,703.059448 254.032150,703.043152 272.514160,702.918396 
	C276.341492,702.892578 278.043518,704.239258 277.938446,708.110840 
	C277.811981,712.769592 277.822968,717.436951 277.945526,722.096130 
	C278.047729,725.979675 276.310425,727.307617 272.491699,727.239990 
	C262.337677,727.059998 252.173111,727.370422 242.023361,727.094727 
	C237.287704,726.966064 237.088470,729.487366 237.040985,733.048950 
	C236.991043,736.795471 237.621796,738.987793 242.198578,738.774048 
	C249.342407,738.440613 256.516266,738.812195 263.673401,738.675476 
	C267.143402,738.609192 268.439789,740.017700 268.328033,743.419617 
	C268.164093,748.409790 268.158722,753.412537 268.311493,758.403015 
	C268.413300,761.729370 266.985321,762.623413 263.814697,762.631897 
	C256.497925,762.651428 249.181351,763.309265 241.868103,762.503174 
	C238.538422,762.136169 236.984589,763.387024 237.053528,766.967285 
	C237.220230,775.622925 237.000854,784.286621 237.205017,792.940735 
	C237.302216,797.060364 235.752457,798.616699 231.639603,798.386597 
	C226.991882,798.126587 222.303253,798.096863 217.660217,798.397034 
	C213.131073,798.689819 211.556351,797.096741 211.621246,792.451660 
	C211.858505,775.470581 211.725067,758.484314 211.730927,741.000000 
z"/>
<path fill="#000000" opacity="1.000000" stroke="none" 
	d="
M742.382812,704.745239 
	C744.869141,704.770630 744.939331,706.770508 745.564026,708.173279 
	C758.565430,737.368469 771.523926,766.582764 784.476746,795.799561 
	C785.066040,797.128784 786.012329,798.398438 785.322693,800.774170 
	C779.353760,801.434204 773.109314,801.281311 766.892273,800.847534 
	C764.309937,800.667297 763.499390,798.052612 763.036682,796.090454 
	C761.055542,787.690552 755.853027,785.158264 747.651550,786.258911 
	C742.743469,786.917542 737.663879,786.585999 732.682129,786.315735 
	C728.757446,786.102783 726.038879,787.421204 725.222107,791.265808 
	C723.349182,800.080933 717.675964,802.438965 709.499390,801.156982 
	C706.594238,800.701599 703.521057,801.742981 700.850037,800.439819 
	C699.897034,799.324585 700.345581,798.356384 700.741394,797.463806 
	C714.171204,767.183838 727.616333,736.910583 741.071167,706.641785 
	C741.339478,706.038269 741.748657,705.497498 742.382812,704.745239 
M736.281555,766.238525 
	C735.995911,767.255005 735.772583,768.450623 737.235779,768.498291 
	C741.462219,768.635864 745.733765,769.233582 750.490173,767.968079 
	C748.079773,762.353760 745.840393,757.137878 743.121948,750.806213 
	C740.545105,756.552490 738.520203,761.068054 736.281555,766.238525 
z"/>
<path fill="#000000" opacity="1.000000" stroke="none" 
	d="
M638.001282,796.633911 
	C637.979980,768.193359 637.966675,740.217834 637.985107,712.242310 
	C637.989929,704.881653 638.045715,704.871338 645.642456,704.874023 
	C658.242310,704.878479 658.247742,704.878540 658.252930,717.590698 
	C658.260681,736.574158 658.439026,755.560303 658.145691,774.539185 
	C658.065430,779.735291 659.763733,781.109253 664.721497,780.896606 
	C673.364563,780.525940 682.039856,780.969421 690.692322,780.731384 
	C694.884399,780.616089 696.420288,782.238220 696.201050,786.271790 
	C696.011475,789.758972 696.097351,793.264038 696.142883,796.760193 
	C696.180481,799.644165 694.890381,801.075073 691.957764,801.074280 
	C675.305908,801.070129 658.654053,801.087280 642.002197,801.108765 
	C639.296753,801.112305 638.066162,799.708191 638.001282,796.633911 
z"/>
<path fill="#000000" opacity="1.000000" stroke="none" 
	d="
M487.020782,279.921814 
	C487.306458,277.234467 485.607239,277.369385 484.126495,277.200287 
	C478.688751,276.579407 473.250702,275.960632 467.816620,275.309021 
	C466.583923,275.161224 465.081482,275.581543 464.249573,273.549164 
	C466.479858,272.165039 468.975739,272.904694 471.290131,272.734222 
	C476.567413,272.345490 481.908356,273.313843 487.141144,271.787109 
	C496.329315,269.106384 500.196686,262.652557 498.126617,253.239243 
	C497.847961,251.972046 497.246948,250.697815 498.365845,249.127548 
	C501.931427,250.466278 502.983124,253.382202 503.297180,256.813995 
	C503.825439,262.586243 502.729523,267.891418 499.811646,273.040192 
	C495.987091,279.788757 491.847137,286.264923 486.738220,293.270111 
	C485.002228,288.183624 487.240173,284.257751 487.020782,279.921814 
z"/>
<path fill="#000000" opacity="1.000000" stroke="none" 
	d="
M501.846985,319.240631 
	C503.955963,322.567322 506.688782,325.115387 508.301208,330.209320 
	C491.739380,316.823395 475.225067,311.184204 456.593506,323.822021 
	C460.981415,315.691803 468.054901,311.267944 476.014435,311.804718 
	C486.338928,312.500946 495.784912,312.474945 504.038727,305.411499 
	C504.637604,304.899017 505.437683,304.449097 506.639893,305.275604 
	C505.709290,307.866943 503.777771,309.909973 501.855377,311.764282 
	C499.261017,314.266754 499.103485,316.479309 501.846985,319.240631 
z"/>
<path fill="#000000" opacity="1.000000" stroke="none" 
	d="
M571.144958,455.011597 
	C571.916748,452.480103 572.785645,453.652008 573.304688,454.743011 
	C576.893188,462.286163 577.763428,470.521759 579.182312,478.656342 
	C574.037964,471.718964 572.324646,463.615540 571.144958,455.011597 
z"/>
<path fill="#000000" opacity="1.000000" stroke="none" 
	d="
M602.643799,510.239075 
	C603.636658,511.612518 605.408142,512.157593 604.917664,514.413757 
	C600.736206,512.119690 597.205872,509.490173 594.524475,504.549652 
	C598.603516,505.261444 600.199707,508.093781 602.643799,510.239075 
z"/>
</svg>